<svg version="1.2" xmlns="http://www.w3.org/2000/svg" viewBox="0 0 80 95" width="80" height="95">
	<title>未标题-2(2)-ai</title>
	<style>
		.s0 { fill: none;stroke: #000000;stroke-linecap: round;stroke-linejoin: round;stroke-width: .1 } 
		.s1 { fill: #000000 } 
		.s2 { fill: #b3a387;stroke: #231815;stroke-linecap: round;stroke-linejoin: round;stroke-width: .1 } 
		.s3 { fill: #7b503d;stroke: #231815;stroke-width: .1 } 
		.s4 { fill: #ffffff } 
		.s5 { fill: #baedee } 
		.s6 { fill: none;stroke: #000000;stroke-width: .1 } 
		.s7 { fill: #dba379;stroke: #000000;stroke-width: .1 } 
		.s8 { fill: #ffca9b;stroke: #000000;stroke-width: .1 } 
		.s9 { fill: #7d513e;stroke: #000000;stroke-width: .1 } 
		.s10 { fill: #55585e;stroke: #231815;stroke-width: .1 } 
		.s11 { fill: #95593d;stroke: #000000;stroke-width: .1 } 
		.s12 { fill: #6c7c8e;stroke: #000000;stroke-width: .1 } 
		.s13 { fill: #382013 } 
		.s14 { fill: #231815 } 
	</style>
	<g id="图层 1">
		<path id="&lt;Path&gt;" class="s0" d="m-76.3 183.9q0 0 0 0"/>
		<g id="&lt;Group&gt;">
			<path id="&lt;Path&gt;" class="s1" d="m78.2 57.8c0 0-1.9 1.6-4.2 2.2 0 0 0.3 0.7 0 1.2-0.3 0.4-1.2 1.4-3.6 2.1-2.3 0.6-8.8 1.4-8.8 1.4 0 0-7.1 1.2-12.5 0.7 0 0-0.1 0.7 0.1 1.4 0.2 0.8 0.2 1.3 0.2 1.3 0 0 1.1-0.2 1.8 0.4 0.6 0.6 0.7 1.3 0.7 1.3 0 0 1.8 0.1 3.8-0.5 2-0.6 5.1-1.7 6.7-0.9 1.7 0.9 1.4 1.9 1.3 2.1-0.1 0.2-2.4 2.6-6.3 2.5 0 0 1.2 0.8 5.7 0.4 0 0 1.7-0.7 2.4 0 0.7 0.6 0.5 2.1-0.8 2.8-1.2 0.8-6.1 2.8-13.3-2 0.1 0.1 4.3 3.7 5.5 5.4 1.2 1.8 2.4 2.6 2.8 3.4 0.4 0.8 0.5 1.1 1.5 1.2 1 0.1 1.5 0.7 2.4 1.4 0.4 0.4 0.7 1.1 0.7 1.8 0 0.6-0.2 1.1-0.4 1.4 0 0 1.1 1.7 1.1 2.1 0 0.3-0.7 2.5-1.1 2.6q-0.2 0.1-0.4 0.1c-0.3 0-0.7-0.1-1.3-0.4-0.7-0.5-3.5-2.2-3.5-2.2 0 0-2 0-2.8-1.1-0.8-1-1.8-0.5-2.7-1.3-1-0.8-0.8 0.1-4.1-1.6-3.4-1.8-6.1-2.2-6.1-2.2 0 0-2.3-0.7-3.1-0.7-0.8 0-4.8-0.4-5.7-0.5-1-0.2-3.7-0.4-5.1-0.1-1.3 0.2-3.7 0.5-6 0-2.2-0.5-3.4-0.1-3.8 0.7-0.1 0.2-0.1 0.6-0.1 1 0 0.8 0.2 1.7 0.2 1.7 0 0 0.1 0.2 0.1 0.5q0 0 0 0 0 0.1 0 0.1 0.1 0.1 0.1 0.2 0 0.1 0 0.1 0 0.1 0 0.1 0 0 0 0 0 0.2 0 0.4 0 0.1 0 0.1 0 0 0 0.1 0 0 0 0.1c0.1 0.5 0 0.9-0.2 1.2-0.6 0.8-1.2 1.3-1.2 1.3q0 0 0 0c0 0.1-0.3 1.2-0.4 1.6-0.2 0.5-0.1 2.2-1.7 2.2q0 0 0 0c-1.5 0-2.1 0-2.2-0.2-0.1-0.2-0.4-1.4-0.6-1.7-0.1-0.2-0.3-0.9-0.3-1q0-0.1 0-0.1c0 0-1.6-0.7-1.7-2.1-0.1-1.4 0.2-1.7 0.1-1.9-0.1-0.1-1.6-1.1-1.8-5-0.1-3.8 1-6.2 2.2-7 1.2-0.9 2.7-2.1 3-2.4 0.3-0.4 1-0.9 1.8-0.9 0.8 0 1.2-0.2 1.2-0.2 0 0-0.3-0.8 0-1.4 0.3-0.6 0.4-0.7 0.4-1.1-0.1-0.4-0.5-1.1-0.4-1.8 0.1-0.7 0.9-0.6 1.5-0.6 0 0 0.2-4.9-0.6-6.7-0.7-1.7-5.4-4.8-7-7-1.7-2.2-4.9-5.5-5.9-8.4q-0.2-0.7-0.3-1.1-0.2-0.4-0.3-0.7 0-0.2-0.1-0.3 0 0 0 0c-0.1-0.4-0.2-0.5-0.4-0.6q0 0 0 0-0.1 0-0.1 0 0 0 0 0-0.1 0-0.3-0.1c-0.8-0.1-1.4-0.7-1.4-0.9 0-0.2 0-1.3 0.4-2.1 0 0-2.4-2.2-3.1-5.7-0.6-3.5 1.7-4.4 2.7-3.8 1 0.6 1.3 1.4 1.8 1.2 0.4-0.2 1.3-0.7 1.6-0.4 0.4 0.4 0.8 2.4 0.8 4.1 0 0 0.9 0.1 1.1 0.4 0.3 0.4 4 6.5 6.7 8.9q0.1 0 0.2 0.1 0 0 0 0c2.8 2.3 4.9 3.9 4.9 3.9 0 0 0.5-0.1 0.9-0.1q0.2 0 0.3 0 0 0 0 0 0 0 0.1 0 0 0 0 0 0 0 0 0.1 0 0 0 0 0.1 0 0.3 0.1 0 0 0 0 0 0 0 0 0.1 0 0.1 0c0.7 0.2 2 0.4 3.6 0.3 0 0-10.5-5.2-12.5-15.5-1.9-10.2 2-14 2.2-17.3 0.3-3.3 1.4-5.3 1.4-5.3 0 0-0.5-0.3-0.4-0.7 0-0.3 0.7-0.4 0.8-0.6 0.1-0.2 0.7-2 0.8-2.1 0-0.2-1.3-1.8-1.3-2.3 0-0.5 0-1.6 2-1.6 0 0 0-1.9 0.8-2.7 0.7-0.8 2.5-0.6 4 0.3 1.6 0.9 3.1 2.7 5.1 3.2 2.1 0.6 3.5 1.2 8 1.8 4.6 0.7 9.8 3.1 11.9 4.4 2.1 1.3 4.2 3.1 5.4 5.2 0 0 2.6 3.6 3.2 7.3q0 0 0 0 0 0 0 0 0 0 0 0 0 0 0 0 0 0 0 0 0 0 0 0 0.1 0.1 0.1 0.1 0 0 0 0 0 0 0 0.1 0 0 0 0 0 0 0 0.1 0 0 0 0 0.1 0 0.1 0.1 0 0 0 0 0 0 0 0.1 0 0 0 0 0.1 0 0.1 0.1 0 0 0 0 0 0.1 0.1 0.1 0 0.1 0 0.1 0 0.1 0.1 0.3 0 0 0 0 0.1 0.2 0.1 0.3 0 0 0 0.1 0.1 0.1 0.1 0.1 0 0 0 0.1 0 0 0.1 0.1 0 0.1 0 0.1 0 0.1 0 0.2 0 0 0 0 0.1 0.1 0.1 0.2 0 0 0 0 0.1 0.1 0.1 0.2 0 0 0 0.1 0 0.1 0 0.2 0.1 0 0.1 0 0 0.1 0 0.2 0 0 0 0 0.1 0.1 0.1 0.3 0 0 0 0 0 0.1 0.1 0.3 0 0 0 0 0 0.2 0 0.3 0 0.1 0 0.1 0.1 0.5 0.2 1 0 0 0 0.1 0 0.1 0 0.2 0 0 0 0.1 0 0.1 0 0.2 0 0.1 0 0.1 0 0.2 0 0.3 0 0.2 0 0.3 0 0.1 0 0.1 0 0.1 0 0.2 0 0 0 0.1 0 0.1 0 0.2 0 0 0 0.1 0 0 0 0.1-0.1 0-0.1 0.1 0 0.2 0 0.4 0 0-0.1 0.1 0 0.2 0 0.4 0 0-0.1 0 0 0.2-0.1 0.5 0 0 0 0.1-0.1 0.2-0.1 0.4-0.1 0.2-0.1 0.3 0 0 0 0.1-0.1 0.1-0.1 0.1 0 0.1 0 0.1-0.1 0.2-0.1 0.3l-0.1 0.1q0 0.1 0 0.1 0 0.1-0.1 0.2 0 0.1-0.1 0.2 0 0 0 0.1 0 0.1-0.1 0.1 0 0.1 0 0.2 0 0-0.1 0.1 0 0.1 0 0.2-0.1 0-0.1 0.1v0.1q-0.1 0.1-0.1 0.1 0 0.1-0.1 0.2 0 0 0 0.1 0 0-0.1 0.1 0 0.1 0 0.1 0 0.1-0.1 0.2 0 0 0 0.1 0 0-0.1 0 0 0.1 0 0.1 0 0.1-0.1 0.2 0 0 0 0.1 0 0-0.1 0 0 0.1 0 0.1 0 0 0 0.1 0 0-0.1 0.1 0 0 0 0 0 0.1 0 0.1 0 0-0.1 0 0 0.1 0 0.1 0 0 0 0.1 0 0 0 0 0 0-0.1 0 0 0.1 0 0.1 0 0 0 0 0 0 0 0 0 0 0 0 0 0 0 0c0 0 0.2 3.2-0.9 5.4 0 0 3.5 4.2 3.6 10.5 0 0-0.2 0.1-0.4 0.2q0 0 0 0 0 0 0 0 0 0 0 0 0 0 0 0c0 0.1 0 0.2 0 0.3q0 0 0 0 0 0 0 0-0.1 0-0.1 0 0 0 0 0c0 0-8.9-2-11.6-3.5 0 0-0.9 0.5-2.9 0.9 0 0 2.4 1.1 3.2 1.6 0.7 0.6 2.6 1.9 3.2 2.2 0.7 0.2 2.2 1.4 3.2 1.6 1.1 0.2 2 0.5 2 0.5 0 0 0.6 0.3 0.8 0.6 0.3 0.3 2.4-0.3 4.9 0.2 2.4 0.5 3.8 0.2 3.8 0.2 0 0 0-0.1 0.4-0.1q0 0 0 0 0.2-0.1 0.8 0c0 0 0.1-0.4 1-0.8 0.9-0.4 1.4-0.8 1.8-0.7 0 0 0.9-1.1 2.5-0.7 0 0 0.2 0.1 0.4 0.5 0 0 3.5-2.6 3.9-2.8 0.3-0.2 0.6 0.2 0.8 0.5 0.2 0.2 0.3 0.7 0.7 0.7 0.3 0 2.1-0.2 2.8 0.9 0.7 1.2-1.5 3.3-1.5 3.3z"/>
			<g id="&lt;Group&gt;">
				<path id="&lt;Path&gt;" class="s2" d="m52.1 71.7c-0.1 0.4-0.1 0.8-0.3 1 0 0 0.2 1.4-0.5 1.5-0.6 0.2-1-0.3-1-0.3-0.8 0.6-2.6 1.3-6.4 1.3-3.8-0.1-4-0.6-4-0.6-0.4 0-5.2 0.2-5.2 0.2-9.7 0.1-16.9-2.4-16.9-2.4 0 0-0.3-0.8 0-1.4 0.3-0.6 0.4-0.7 0.4-1.1-0.1-0.4-0.5-1.1-0.4-1.8 0.1-0.7 0.9-0.6 1.5-0.6 0 0 0.3 0.5 1.2 0.6 1 0.1 2.3 0.4 2.9 0.7 0.7 0.2 3.2 0.6 3.9 0.6 0.7 0 5.6 0.9 6.4 0.8 0.7-0.1 1.2 0 2.1 0.1 0.9 0.2 7.2 0.4 7.9 0.3 0.8-0.1 4.1-0.8 4.1-0.8 0 0-3.6-4.6-3.8-5.1-0.3-0.5-2.6-2.7-3-3-0.4-0.4-3-2.5-3.9-3.5-1-0.9-2.6-3.1-3-3.4-0.4-0.3-1.6-1.1-1.8-1.4-0.3-0.2-2-1.9-2.5-2.3-0.4-0.4-0.9-0.5-1.7-1.3q0.4 0.2 0.9 0.3 0.1 0 0.2 0.1 0.1 0 0.3 0 0.3 0.1 0.6 0.2 0.1 0 0.2 0 0.5 0.1 0.9 0.2 0.1 0.1 0.3 0.1 0.1 0 0.2 0 0.2 0.1 0.3 0.1 0.4 0 0.8 0.1 0.1 0 0.3 0 1.4 0.2 2.9 0.1c0 0 2.3 0 4.5-0.3q0.6-0.1 1.2-0.2 0.1 0 0.3 0 0 0 0 0 0.1 0 0.1-0.1 0.1 0 0.2 0 0.1 0 0.1 0 0.1 0 0.1 0 0.1-0.1 0.2-0.1 0.1 0 0.1 0c0.1 0.3 0.1 1-0.1 1.5-0.3 0.8-1.8 3.2-2.1 3.6-0.3 0.3-1.2 1.5-1.2 1.5 0 0 2.6 2.1 4 3.8 1.4 1.7 2.9 3.6 3 3.9 0.1 0.3 0.9 1.4 1.1 1.7 0.2 0.3 2 2.8 2 2.8 0.1-0.4-0.1-1-0.1-1 0 0 1.1-0.2 1.8 0.4 0.6 0.6 0.7 1.3 0.7 1.3 0 0 0.1 0.7-0.2 0.8 0 0 0.4 0.6 0.4 1.1z"/>
				<path id="&lt;Path&gt;" class="s3" d="m58.1 52.4c0 0 0 0.3-0.1 0.3 0 0-8.9-2-11.6-3.5 0 0-0.9 0.5-2.9 0.9-2.3 0.8-7.5 0.9-7.5 0.9-6.1 0.2-10.7-2.3-10.7-2.3 0 0-10.5-5.2-12.5-15.5-1.9-10.2 2-14 2.2-17.3 0.3-3.3 1.4-5.3 1.4-5.3 0 0-0.5-0.3-0.4-0.7 0-0.3 0.7-0.4 0.8-0.6 0.1-0.2 0.7-2 0.8-2.1 0-0.2-1.3-1.8-1.3-2.3 0-0.5 0-1.6 2-1.6 0 0 0-1.9 0.8-2.7 0.7-0.8 2.5-0.6 4 0.3 1.6 0.9 3.1 2.7 5.1 3.2 2.1 0.6 3.5 1.2 8 1.8 4.6 0.7 9.8 3.1 11.9 4.4 2.1 1.3 4.2 3.1 5.4 5.2 0 0 2.6 3.6 3.2 7.3 0 0 1.5 3 1.5 6 0 3-2.4 7.5-2.4 7.5 0 0 0.2 3.2-0.9 5.4 0 0 3.5 4.2 3.6 10.5 0 0-0.2 0.1-0.4 0.2z"/>
				<path id="&lt;Path&gt;" class="s4" d="m57.9 26.1c-0.1-0.1-0.2-0.2-0.3-0.1q-0.1 0.2-0.4 0.7-0.2-0.1-0.3 0.1c-0.1 0.2-0.1 0.4 0 0.7q0 0 0 0c-0.3 0.5-0.4 1.1-0.6 1.8-0.2 1.4-1.3 5.5-2 7.2-0.3-0.1-0.5-0.2-0.5-0.2 0.1-2.9 1.3-6.9 1.4-8.2 0.1-1.3 0.6-4.3 0.9-5.2 0.2-1 0.6-0.1 0.6-0.1 0 0 0.7 1.4 1.2 3.3z"/>
				<path id="&lt;Path&gt;" class="s1" d="m58.2 28.8q0 0.6 0 1.1c-0.2-0.1-0.5-0.1-0.6 0.6 0 0.6 0 1 0.1 1.4-0.8 2.3-1.9 4.4-1.9 4.4-0.1 0.5-0.6 0.4-1.1 0.3 0.4-0.9 1.2-3.2 1.6-5.1 0.4-1.4 0.7-2.4 1-3.1q0.1 0 0.2 0c0.1-0.1 0.2-0.4 0.2-0.7q0.1-0.1 0.1-0.2c0.1-0.1 0.2-0.1 0.4 0q0 0.7 0 1.3z"/>
				<path id="&lt;Path&gt;" class="s5" d="m57.3 28.4c-0.3 0.7-0.6 1.7-1 3.1-0.4 1.9-1.2 4.2-1.6 5.1q-0.2 0-0.4-0.1c0.7-1.7 1.8-5.8 2-7.2 0.2-0.7 0.3-1.3 0.6-1.8q0 0.1 0 0.2 0 0.3 0.2 0.5 0.1 0.2 0.2 0.2z"/>
				<path id="&lt;Path&gt;" class="s5" d="m58.2 27.5c-0.2-0.1-0.3-0.1-0.4 0q0 0.1-0.1 0.2c0-0.3-0.1-0.5-0.2-0.7 0-0.1-0.2-0.3-0.3-0.3q0.3-0.5 0.4-0.7c0.1-0.1 0.2 0 0.3 0.1q0.2 0.7 0.3 1.4z"/>
				<path id="&lt;Path&gt;" class="s6" d="m58.1 52.6c-7.6-3.1-13.1-8.5-14.3-9.8 0.1-0.2 0.2-0.3 0.2-0.3 0 0 5.4 5.8 14.1 9.9 0 0 0 0.1 0 0.2z"/>
				<path id="&lt;Path&gt;" class="s7" d="m58.1 52.6q0 0.1-0.1 0.1c0 0-8.9-2-11.6-3.5 0 0-3-1-3.6-2.3-0.7-1.4 0-2.2 0.3-3 0.2-0.5 0.5-0.8 0.7-1.1 1.2 1.3 6.7 6.7 14.3 9.8z"/>
				<path id="&lt;Path&gt;" class="s8" d="m58.5 52.2c0 0-0.2 0.1-0.4 0.2-8.7-4.1-14.1-9.9-14.1-9.9 0.3-0.9 1.9-3.5 3.6-4.7 1.8-1.3 2.7-0.5 2.7-0.5 2.7 1.4 4.6 4.4 4.6 4.4 0 0 3.5 4.2 3.6 10.5z"/>
				<path id="&lt;Path&gt;" class="s6" d="m50.3 71.9c0.2 0.8 0 2 0 2-0.8 0.6-2.6 1.3-6.4 1.3-3.8-0.1-4-0.6-4-0.6-0.4 0-5.2 0.2-5.2 0.2-9.7 0.1-16.9-2.4-16.9-2.4 0 0-0.3-0.8 0-1.4 0.3-0.6 0.4-0.7 0.4-1.1-0.1-0.4-0.5-1.1-0.4-1.8 0.1-0.7 0.9-0.6 1.5-0.6 0 0 0.3 0.5 1.2 0.6 1 0.1 2.3 0.4 2.9 0.7 0.7 0.2 3.2 0.6 3.9 0.6 0.7 0 5.6 0.9 6.4 0.8 0.7-0.1 1.2 0 2.1 0.1 0.9 0.2 7.2 0.4 7.9 0.3 0.8-0.1 4.1-0.8 4.1-0.8 0 0 0.5 0 1.1-0.1 0.6 0 0.6-0.6 0.6-0.6 1-0.2 1.1 0.2 1.2 0.9 0 0.6-0.4 1.9-0.4 1.9z"/>
				<path id="&lt;Path&gt;" class="s6" d="m74 61.2c-0.3 0.4-1.2 1.4-3.6 2.1-2.3 0.6-8.8 1.4-8.8 1.4 0 0-7.1 1.2-12.5 0.7 0 0-0.1 0.7 0.1 1.4 0.2 0.8 0.2 1.3 0.2 1.3 0 0 0.2 0.6 0.1 1 0 0-1.8-2.5-2-2.8-0.2-0.3-1-1.4-1.1-1.7-0.1-0.3-1.6-2.2-3-3.9-1.4-1.7-4-3.8-4-3.8 0 0 0.9-1.2 1.2-1.5 0.3-0.4 1.8-2.8 2.1-3.6 0.2-0.5 0.2-1.2 0.1-1.5q0.1 0 0.2 0 0.2-0.1 0.3-0.1 0.1-0.1 0.2-0.1c0 0 2.4 1.1 3.2 1.6 0.7 0.6 2.6 1.9 3.2 2.2 0.7 0.2 2.2 1.4 3.2 1.6 1.1 0.2 2 0.5 2 0.5 0 0 0.6 0.3 0.8 0.6 0.3 0.3 2.4-0.3 4.9 0.2 2.4 0.5 3.8 0.2 3.8 0.2 0 0 0.1-0.1 0.4-0.1q0 0 0 0 0.2-0.1 0.8 0c0 0 0.1-0.4 1-0.8 0.9-0.4 1.4-0.8 1.8-0.7 0 0 0.9-1.1 2.5-0.7 0 0 0.2 0.1 0.4 0.5 0 0 1 1.7 1.4 2.6 0.5 1 1.1 2.2 1.1 2.2 0 0 0.3 0.7 0 1.2z"/>
				<path id="&lt;Path&gt;" class="s6" d="m52.1 71.7c-0.1 0.4-0.1 0.8-0.3 1 0 0 0.2 1.4-0.5 1.5-0.6 0.2-1-0.3-1-0.3 0 0 0.2-1.2 0-2 0 0 0.4-1.3 0.4-1.9-0.1-0.7-0.2-1.1-1.2-0.9 0.1-0.4-0.1-1-0.1-1 0 0 1.1-0.2 1.8 0.4 0.6 0.6 0.7 1.3 0.7 1.3 0 0 0.1 0.7-0.2 0.8 0 0 0.4 0.6 0.4 1.1z"/>
				<path id="&lt;Path&gt;" class="s9" d="m18.2 91.1c0 0.1-0.3 1.2-0.4 1.6-0.2 0.5-0.1 2.2-1.7 2.2-1.5 0-2.1 0-2.2-0.2-0.1-0.2-0.4-1.4-0.6-1.7-0.1-0.2-0.3-0.9-0.3-1q0.2 0 0.3 0.1c0.4 0.1 0.8 0 1.1 0q0.4 0 0.7 0 0.3-0.1 0.5-0.1 0.2 0 0.5-0.1 0.4-0.1 0.9-0.2 0.2 0 0.5-0.1 0.2-0.1 0.4-0.2 0.1-0.1 0.2-0.2 0-0.1 0.1-0.1z"/>
				<path id="&lt;Path&gt;" class="s9" d="m65 90.9c0 0.3-0.7 2.5-1.1 2.6-0.4 0.1-0.9 0.1-1.7-0.3-0.7-0.5-3.5-2.2-3.5-2.2 0 0-0.2-0.1-0.2-0.2 0.1-0.2 0.6-0.4 1.3-0.4 0.7-0.1 2.4-0.9 2.6-0.9 0.1 0 1.2-0.3 1.5-0.7 0 0 1.1 1.7 1.1 2.1z"/>
				<path id="&lt;Path&gt;" class="s6" d="m49.5 69.1c0 0 0 0.6-0.6 0.6-0.6 0.1-1.1 0.1-1.1 0.1 0 0-3.6-4.6-3.8-5.1-0.3-0.5-2.6-2.7-3-3-0.4-0.4-3-2.5-3.9-3.5-1-0.9-2.6-3.1-3-3.4-0.4-0.3-1.6-1.1-1.8-1.4-0.3-0.2-2-1.9-2.5-2.3-0.4-0.4-0.9-0.5-1.7-1.3q0.4 0.2 0.9 0.3 0.1 0 0.2 0.1 0.1 0 0.3 0 0.3 0.1 0.6 0.2 0.1 0 0.2 0 0.5 0.1 0.9 0.2 0.1 0.1 0.3 0.1 0.1 0 0.2 0 0.2 0.1 0.3 0.1 0.4 0 0.8 0.1 0.1 0 0.3 0c0.4 0.4 1.1 0.9 1.5 1.1 0.5 0.4 1.9 2 2.1 2.3 0.2 0.4 0.9 0.8 1.2 0.8 0.2 0 0.6-0.4 1-0.8 0.4-0.4 0.7-1.4 1.2-2.4 0.3-0.5 0.4-0.9 0.4-1.2q0.6-0.1 1.2-0.2 0.1 0 0.3 0 0 0 0 0 0.1 0 0.1-0.1 0.1 0 0.2 0 0.1 0 0.1 0 0.1 0 0.1 0 0.1-0.1 0.2-0.1 0.1 0 0.1 0c0.1 0.3 0.1 1-0.1 1.5-0.3 0.8-1.8 3.2-2.1 3.6-0.3 0.3-1.2 1.5-1.2 1.5 0 0 2.6 2.1 4 3.8 1.4 1.7 2.9 3.6 3 3.9 0.1 0.3 0.9 1.4 1.1 1.7 0.2 0.3 2 2.8 2 2.8z"/>
				<path id="&lt;Path&gt;" class="s2" d="m64.7 76.2c-1.2 0.8-6.1 2.8-13.3-2 0.6-0.2 0.4-1.5 0.4-1.5 0.2-0.2 0.2-0.6 0.3-1 0-0.5-0.4-1.1-0.4-1.1 0.3-0.1 0.2-0.8 0.2-0.8 0 0 1.8 0.1 3.8-0.5 2-0.6 5.1-1.7 6.7-0.9 1.7 0.9 1.4 1.9 1.3 2.1-0.1 0.2-2.4 2.6-6.3 2.5 0 0 1.2 0.8 5.7 0.4 0 0 1.7-0.7 2.4 0 0.7 0.6 0.5 2.1-0.8 2.8z"/>
				<path id="&lt;Path&gt;" class="s10" d="m63.9 88.8c-0.3 0.4-1.4 0.7-1.5 0.7-0.2 0-1.9 0.8-2.6 0.9-0.7 0-1.2 0.2-1.3 0.4 0 0.1 0.2 0.2 0.2 0.2 0 0-1.9 0-2.8-1.1-0.8-1-1.8-0.5-2.7-1.3-1-0.8-0.8 0.1-4.1-1.6-3.4-1.8-6.1-2.2-6.1-2.2 0 0-2.3-0.7-3.1-0.7-0.8 0-4.8-0.4-5.7-0.5-1-0.2-3.7-0.4-5.1-0.1-1.3 0.2-3.7 0.5-6 0-2.2-0.5-3.4-0.1-3.8 0.7-0.1 0.2-0.1 0.6-0.1 1 0 0.8 0.2 1.7 0.2 1.7 0 0 0.1 0.2 0.1 0.5q0 0 0 0 0 0.1 0 0.1 0.1 0.1 0.1 0.2 0 0.1 0 0.1 0 0.1 0 0.1 0 0 0 0 0 0.2 0 0.4 0 0.1 0 0.1 0 0 0 0.1 0 0 0 0.1c0.1 0.5 0 0.9-0.2 1.2-0.6 0.8-1.2 1.3-1.2 1.3q0 0 0 0-0.1 0-0.1 0.1-0.1 0.1-0.2 0.2-0.2 0.1-0.4 0.2-0.3 0.1-0.5 0.1-0.5 0.1-0.9 0.2-0.3 0.1-0.5 0.1-0.2 0-0.5 0.1-0.3 0-0.7 0c-0.3 0-0.7 0.1-1.1 0q-0.1-0.1-0.3-0.1 0-0.1 0-0.1c0 0-1.6-0.7-1.7-2.1-0.1-1.4 0.2-1.7 0.1-1.9-0.1-0.1-1.6-1.1-1.8-5-0.1-3.8 1-6.2 2.2-7 1.2-0.9 2.7-2.1 3-2.4 0.3-0.4 1-0.9 1.8-0.9 0.8 0 1.2-0.2 1.2-0.2 0 0 7.2 2.5 16.9 2.4 0 0 4.8-0.2 5.2-0.2 0 0 0.2 0.5 4 0.6 3.8 0 5.6-0.7 6.4-1.3 0 0 0.4 0.5 1 0.3q0.1 0 0.1 0c0.1 0.1 4.3 3.7 5.5 5.4 1.2 1.8 2.4 2.6 2.8 3.4 0.4 0.8 0.5 1.1 1.5 1.2 1 0.1 1.5 0.7 2.4 1.4 0.8 0.7 0.8 2.6 0.3 3.2z"/>
				<path id="&lt;Path&gt;" class="s9" d="m18.1 91.2q0-0.1 0.1-0.1c0 0.1-0.3 1.2-0.4 1.6-0.2 0.5-0.1 2.2-1.7 2.2-1.5 0-2.1 0-2.2-0.2-0.1-0.2-0.4-1.4-0.6-1.7-0.1-0.2-0.3-0.9-0.3-1q0.2 0 0.3 0.1c0.4 0.1 0.7 0 1.1 0q0.4 0 0.7 0 0.3-0.1 0.5-0.1 0.2 0 0.5-0.1 0.4-0.1 0.9-0.2 0.2 0 0.5-0.1 0.2-0.1 0.4-0.2 0.1-0.1 0.2-0.2z"/>
				<path id="&lt;Path&gt;" class="s9" d="m63.9 88.8c0 0 1.1 1.7 1.1 2.1 0 0.3-0.7 2.5-1.1 2.6-0.4 0.1-0.9 0.1-1.7-0.3-0.7-0.5-3.5-2.2-3.5-2.2 0 0-0.2-0.1-0.2-0.2 0.1-0.2 0.6-0.4 1.3-0.4 0.7-0.1 2.4-0.9 2.6-0.9 0.1 0 1.2-0.3 1.5-0.7z"/>
				<path id="&lt;Path&gt;" class="s11" d="m78.2 57.8c0 0-1.9 1.6-4.2 2.2 0 0-0.6-1.2-1.1-2.2-0.4-0.9-1.4-2.6-1.4-2.6 0 0 3.5-2.6 3.9-2.8 0.3-0.2 0.6 0.2 0.8 0.5 0.2 0.2 0.3 0.7 0.7 0.7 0.3 0 2.1-0.2 2.8 0.9 0.7 1.2-1.5 3.3-1.5 3.3z"/>
				<path id="&lt;Path&gt;" class="s11" d="m7.1 35c0 0-0.4 0.6-0.7 0.9-0.4 0.2-2.1 3.7-2.5 3.9-0.3 0.3-0.6-0.2-0.6-0.2 0 0-2.4-2.2-3.1-5.7-0.6-3.5 1.7-4.4 2.7-3.8 1 0.6 1.3 1.4 1.8 1.2 0.4-0.2 1.3-0.7 1.6-0.4 0.4 0.4 0.8 2.4 0.8 4.1z"/>
				<path id="&lt;Path&gt;" class="s12" d="m47.8 69.8c0 0-3.3 0.7-4.1 0.8-0.7 0.1-7-0.1-7.9-0.3-0.9-0.1-1.4-0.2-2.1-0.1-0.8 0.1-5.7-0.8-6.4-0.8-0.7 0-3.2-0.4-3.9-0.6-0.6-0.3-1.9-0.6-2.9-0.7-0.9-0.1-1.2-0.6-1.2-0.6 0 0 0.2-4.9-0.6-6.7-0.7-1.7-5.4-4.8-7-7-1.7-2.2-4.9-5.5-5.9-8.4-0.9-2.9-0.7-2.6-1.5-2.8-0.8-0.1-1.4-0.7-1.4-0.9 0-0.2 0-1.3 0.4-2.1 0 0 0.3 0.5 0.6 0.2 0.4-0.2 2.1-3.7 2.5-3.9 0.3-0.3 0.7-0.9 0.7-0.9 0 0 0.9 0.1 1.1 0.4 0.3 0.4 4.1 6.7 6.9 9 2.7 2.2 4.9 3.9 4.9 3.9 0 0 1.1-0.2 1.3 0 0.2 0.1 1.8 0.6 4 0.4 0 0 1.1 0.6 2.8 1.1 0.8 0.8 1.3 0.9 1.7 1.3 0.5 0.4 2.2 2.1 2.5 2.3 0.2 0.3 1.4 1.1 1.8 1.4 0.4 0.3 2 2.5 3 3.4 0.9 1 3.5 3.1 3.9 3.5 0.4 0.3 2.7 2.5 3 3 0.2 0.5 3.8 5.1 3.8 5.1z"/>
				<path id="&lt;Path&gt;" class="s12" d="m74 61.2c-0.3 0.4-1.2 1.4-3.6 2.1-2.3 0.6-8.8 1.4-8.8 1.4 0 0-7.1 1.2-12.5 0.7 0 0-0.1 0.7 0.1 1.4 0.2 0.8 0.2 1.3 0.2 1.3 0 0 0.2 0.6 0.1 1 0 0-1.8-2.5-2-2.8-0.2-0.3-1-1.4-1.1-1.7-0.1-0.3-1.6-2.2-3-3.9-1.4-1.7-4-3.8-4-3.8 0 0 0.9-1.2 1.2-1.5 0.3-0.4 1.8-2.8 2.1-3.6 0.2-0.5 0.2-1.2 0.1-1.5q0.1 0 0.2 0 0.2-0.1 0.3-0.1 0.1-0.1 0.2-0.1c0 0 2.4 1.1 3.2 1.6 0.7 0.6 2.6 1.9 3.2 2.2 0.7 0.2 2.2 1.4 3.2 1.6 1.1 0.2 2 0.5 2 0.5 0 0 0.6 0.3 0.8 0.6 0.3 0.3 2.4-0.3 4.9 0.2 2.4 0.5 3.8 0.2 3.8 0.2 0 0 0-0.1 0.4-0.1q0 0 0 0 0.2-0.1 0.8 0c0 0 0.1-0.4 1-0.8 0.9-0.4 1.4-0.8 1.8-0.7 0 0 0.9-1.1 2.5-0.7 0 0 0.2 0.1 0.4 0.5 0 0 1 1.7 1.4 2.6 0.5 1 1.1 2.2 1.1 2.2 0 0 0.3 0.7 0 1.2z"/>
				<path id="&lt;Path&gt;" class="s4" d="m44.7 29.5c-0.2 2.3-2.6 6-2.6 6 0 0-0.5 0-1.3 0 2.2-3.6 2.7-7.1 1.3-8.8-1.4-1.8-3.6-1-3.6-1q-0.1 0-0.1 0-0.1-0.1-0.2-0.2c-0.5-0.3-1.2 0.1-1.3 0.8q0 0.2 0 0.4c-2.1 2.3-2.1 7.9-2.1 8q-1-0.3-1.9-0.9c0 0-2.4-4.3 0-8.6 2.4-4.2 5.6-4.4 8.5-3.1 2.9 1.3 3.4 5.1 3.3 7.4z"/>
				<path id="&lt;Path&gt;" class="s5" d="m40.8 35.5q-0.3 0-0.6 0c1.2-1.5 1.6-4.7 1.5-5.6-0.1-0.9-0.5-3.3-2.9-2.4-2.3 0.9-2.6 3.8-2.8 5.9-0.1 0.8-0.2 1.3-0.4 1.6q-0.4-0.1-0.8-0.3 0 0 0 0c0-0.1 0-5.7 2.1-8 0.1 0.5 0.5 0.7 0.5 0.7 0 0 0.4 0.4 0.9 0 0.4-0.3 0.5-1.2 0.1-1.7q0 0 0.1 0c0 0 2.2-0.8 3.6 1 1.4 1.7 0.9 5.2-1.3 8.8z"/>
				<path id="&lt;Path&gt;" class="s1" d="m40.2 35.5c-1.3 0-3-0.1-4.6-0.5 0.2-0.3 0.3-0.8 0.4-1.6 0.2-2.1 0.5-5 2.8-5.9 2.4-0.9 2.8 1.5 2.9 2.4 0.1 0.9-0.3 4.1-1.5 5.6z"/>
				<path id="&lt;Path&gt;" class="s4" d="m38.3 27.4c-0.5 0.4-0.9 0-0.9 0 0 0-0.4-0.2-0.5-0.7q0-0.2 0-0.4c0.1-0.7 0.8-1.1 1.3-0.8q0.1 0.1 0.2 0.2c0.4 0.5 0.3 1.4-0.1 1.7z"/>
				<path id="&lt;Path&gt;" class="s4" d="m58.2 29.9q-0.2 1-0.5 2c-0.1-0.4-0.1-0.8-0.1-1.4 0.1-0.7 0.4-0.7 0.6-0.6z"/>
				<path id="&lt;Path&gt;" class="s4" d="m57.7 27.7c0 0.3-0.1 0.6-0.2 0.7q-0.1 0-0.2 0-0.1 0-0.2-0.2-0.2-0.2-0.2-0.5 0-0.1 0-0.2 0 0 0 0c-0.1-0.3-0.1-0.5 0-0.7q0.1-0.2 0.3-0.1c0.1 0 0.3 0.2 0.3 0.3 0.1 0.2 0.2 0.4 0.2 0.7z"/>
				<path id="&lt;Path&gt;" class="s1" d="m8.9 38.7c-0.5 0.5-3.1 3.2-4.2 4-0.1 0-0.2 0-0.4-0.1 0 0 2.6-1.9 4.6-3.9z"/>
				<path id="&lt;Path&gt;" class="s1" d="m7.8 41.5c-0.4 0.4-1.7 1.6-2.6 2.1q0-0.2-0.1-0.3c0.3-0.1 1.8-1 2.7-1.8z"/>
				<path id="&lt;Path&gt;" class="s6" d="m5.1 43.3q0 0 0 0"/>
				<path id="&lt;Path&gt;" class="s1" d="m15.7 52.2c0 0-0.2-1.4-0.4-2-0.3-0.6-1 0.5-1 0.5 0.4-1.9 0.6-5.8 0.6-6.5q0.1 0.1 0.2 0.2 0 0 0 0c0.8 2.9 0.6 7.8 0.6 7.8z"/>
				<path id="&lt;Path&gt;" class="s6" d="m14.3 50.7q0 0 0 0"/>
				<path id="&lt;Path&gt;" class="s13" d="m40.5 50.7c0 0.3-0.1 0.7-0.4 1.2-0.5 1-0.8 2-1.2 2.4-0.4 0.4-0.8 0.8-1 0.8-0.3 0-1-0.4-1.2-0.8-0.2-0.3-1.6-1.9-2.1-2.3-0.4-0.2-1.1-0.7-1.5-1.1q1.4 0.2 2.9 0.1c0 0 2.3 0 4.5-0.3z"/>
				<g id="&lt;Group&gt;">
					<path id="&lt;Path&gt;" class="s1" d="m19.5 61.6q0.2-1 0.6-1.9 0.3-0.9 0.7-1.8 0.4-0.9 0.9-1.8 0.5-0.8 1.1-1.6-0.5 0.8-0.9 1.7-0.4 0.9-0.9 1.8-0.8 1.8-1.5 3.6z"/>
				</g>
				<path id="&lt;Path&gt;" class="s1" d="m21.7 48.4c-0.2 0.3-0.3 1-0.3 1.6 0 0.7-0.9 3.6-0.9 3.6 0 0 0.6-2.7 0.7-3.1 0-0.4-0.7-0.2-1 0.2-0.4 0.5-1.8 8.1-1.8 8.1-0.2-1.6 1.2-6.3 1.5-7.5 0.2-1.3 1-3.1 1-3.1q0 0 0 0 0.3 0 0.4 0.1 0.1 0 0.4 0.1z"/>
				<path id="&lt;Path&gt;" class="s1" d="m43.7 56c0 0 0.3-2.5 0.7-3.4 0.3-1 1.3-1.1 1.4-0.8 0.2 0.3 0.7 0.9-0.3 2.1-0.9 1.1-1.8 2.1-1.8 2.1z"/>
				<g id="&lt;Group&gt;">
					<path id="&lt;Path&gt;" class="s1" d="m51.8 72.8c-0.2 0.2-0.4 0.3-0.6 0.3q0.3-0.1 0.5-0.4z"/>
				</g>
				<g id="&lt;Group&gt;">
					<path id="&lt;Path&gt;" class="s1" d="m29.1 78.6q1.9 0.4 3.7 0.9 1.9 0.5 3.7 1 1.9 0.6 3.7 1.2 1.8 0.6 3.6 1.4-1.8-0.6-3.6-1.2-1.9-0.6-3.7-1.1-1.9-0.6-3.7-1.1z"/>
				</g>
				<g id="&lt;Group&gt;">
					<path id="&lt;Path&gt;" class="s1" d="m29.5 76.6q1.2 0.2 2.4 0.3l2.3 0.3q1.2 0.2 2.4 0.4l2.4 0.4q1.2 0.2 2.4 0.4 1.2 0.2 2.4 0.5c1.6 0.3 3.1 0.7 4.6 1.2q-1.1-0.3-2.3-0.6-1.2-0.2-2.4-0.4-2.3-0.5-4.7-0.9-2.4-0.4-4.8-0.8l-2.4-0.4z"/>
				</g>
				<g id="&lt;Group&gt;">
					<path id="&lt;Path&gt;" class="s1" d="m29.5 77.8q1.5 0.4 3.1 0.8l3.2 0.8q3.1 0.8 6.3 1.7 1.6 0.5 3.1 1 1.6 0.4 3.1 0.9c2.1 0.7 4.2 1.4 6.2 2.3q-1.5-0.6-3.1-1.1-1.6-0.5-3.1-1-3.1-0.9-6.3-1.8-3.1-0.9-6.3-1.8z"/>
				</g>
				<g id="&lt;Group&gt;">
					<path id="&lt;Path&gt;" class="s1" d="m49.6 86.6q0.6 0 1.2 0 0.3 0 0.6 0h0.7q1.2 0 2.4-0.2 0.6-0.1 1.2-0.2 0.3-0.1 0.6-0.2l0.3-0.1h0.3l0.6-0.2 0.6-0.3q0.1 0 0.2-0.1l0.3-0.1q0.3-0.1 0.6-0.2c-0.7 0.4-1.5 0.8-2.2 1l-0.3 0.1-0.3 0.1q-0.3 0.1-0.6 0.2-0.6 0.1-1.3 0.2-1.2 0.2-2.4 0.2-1.3 0-2.5-0.2z"/>
				</g>
				<path id="&lt;Path&gt;" class="s1" d="m17.9 72.7c0 0 2.9 1 3.5 1.6 0.7 0.6 1.3 1.3 1.3 1.3 0 0-2.7-0.5-3.6-1.5-0.9-1-1.2-1.4-1.2-1.4z"/>
				<path id="&lt;Path&gt;" class="s1" d="m17.5 82.8c0 0.3 0.3 0.2 0.7 0.1 0.4-0.1 1.7-0.2 1.7-0.2q0 0-0.3 0.2c-0.2 0.1-0.1 0.8-0.6 1.3-0.6 0.6-2.9 1.9-2.9 1.9 1.1-0.6 2.1-2.7 2-2.8-0.1-0.1-0.7 0-1-0.1-0.3-0.1-1.1 0.1-1.4 0.2-0.2 0.1-1 0.4-1 0.4 0.5-0.5 1.7-0.9 2.1-1.2 0.4-0.3 2-0.4 2-0.4 0 0-1.2 0.4-1.3 0.6z"/>
				<path id="&lt;Path&gt;" class="s1" d="m19.5 87.4c-0.1 0.3-0.2 0.6-0.4 0.6-0.3 0-0.7-1.3-0.9-1.2-0.2 0-1 0.3-1.6 0.5 1.8-0.7 2.5-1.9 2.6-2.1 0 0.8 0.2 1.7 0.2 1.7 0 0 0.1 0.2 0.1 0.5z"/>
				<path id="&lt;Path&gt;" class="s6" d="m19.2 85.2q0 0 0 0"/>
				<g id="&lt;Group&gt;">
					<path id="&lt;Path&gt;" class="s1" d="m22.5 68.6c0-0.3-0.1-0.7-0.1-1l-0.1-0.9q-0.1-1-0.3-1.9 0.2 0.9 0.4 1.9l0.2 0.9c0 0.3 0.1 0.6 0.1 1z"/>
				</g>
				<g id="&lt;Group&gt;">
					<path id="&lt;Path&gt;" class="s1" d="m34.6 70.3q-1.1-2.5-2.1-5 1.1 2.5 2.3 4.9z"/>
				</g>
				<g id="&lt;Group&gt;">
					<path id="&lt;Path&gt;" class="s1" d="m40.3 70.7c-0.3-0.8-0.6-1.5-0.8-2.3-0.3-0.7-0.6-1.5-1-2.2 0.4 0.7 0.8 1.4 1.1 2.2 0.3 0.7 0.6 1.5 0.9 2.2z"/>
				</g>
				<g id="&lt;Group&gt;">
					<path id="&lt;Path&gt;" class="s1" d="m46.5 57.1q0.2 1 0.5 2.1 0.2 1.1 0.5 2.1 0.1 0.6 0.3 1.1 0.1 0.5 0.3 1 0.2 0.5 0.5 1 0.2 0.5 0.5 1c-0.5-0.6-0.9-1.2-1.2-1.9q-0.4-1-0.7-2.1-0.3-1.1-0.4-2.2-0.2-1-0.3-2.1z"/>
				</g>
				<g id="&lt;Group&gt;">
					<path id="&lt;Path&gt;" class="s1" d="m45.1 60.8q0.5 0.8 1 1.7 0.2 0.4 0.5 0.8l0.2 0.4 0.2 0.5q0.2 0.2 0.3 0.4 0.1 0.2 0.3 0.4l0.2 0.4q0.2 0.2 0.3 0.4 0.6 0.8 1.2 1.5c-0.5-0.4-1-0.9-1.4-1.4q-0.6-0.8-1.1-1.6-0.5-0.8-0.9-1.7-0.4-0.9-0.8-1.8z"/>
				</g>
				<g id="&lt;Group&gt;">
					<path id="&lt;Path&gt;" class="s1" d="m48.8 54.8c0 0.9 0 1.7 0.1 2.6q0 0.6 0 1.3 0.1 0.6 0.2 1.3c-0.2-0.4-0.3-0.9-0.4-1.3q0-0.3 0-0.6-0.1-0.4-0.1-0.7 0-0.7 0-1.3 0.1-0.7 0.2-1.3z"/>
				</g>
				<g id="&lt;Group&gt;">
					<path id="&lt;Path&gt;" class="s1" d="m55.9 56.6q0.2 0.4 0.3 0.9 0.1 0.4 0.1 0.8 0 0.3 0 0.5 0 0.2-0.1 0.4-0.1 0.4-0.2 0.9-0.3 0.8-0.5 1.6-0.3 0.9-0.6 1.7l-0.2-0.1q0.7-1.3 1.3-2.5 0.3-0.7 0.6-1.4c0.1-0.4 0.3-0.9 0.3-1.3 0 0.5-0.1 0.9-0.2 1.4q-0.2 0.7-0.5 1.3-0.3 0.7-0.6 1.3-0.3 0.7-0.7 1.3l-0.2-0.1 0.5-1.6q0.3-0.9 0.6-1.7 0.1-0.4 0.2-0.8 0.1-0.2 0.1-0.4 0.1-0.2 0.1-0.5c0-0.5-0.1-1.1-0.3-1.7z"/>
				</g>
				<path id="&lt;Path&gt;" class="s1" d="m56.7 56.9c0 0 2.1 1.4 2.8 3.2 0 0 1.4-3.9-2.8-3.2z"/>
				<path id="&lt;Path&gt;" class="s4" d="m39.7 30.3c-0.1 0.4-0.5 0.5-0.8 0.4-0.3-0.1-0.4-0.5-0.3-0.9 0.2-0.3 0.6-0.5 0.9-0.4 0.3 0.2 0.4 0.5 0.2 0.9z"/>
				<path id="&lt;Path&gt;" class="s4" d="m40.2 31c-0.1 0.2-0.3 0.3-0.5 0.3-0.2-0.1-0.3-0.4-0.2-0.6 0.1-0.2 0.4-0.3 0.6-0.3 0.2 0.1 0.2 0.4 0.1 0.6z"/>
				<g id="&lt;Group&gt;">
					<path id="&lt;Path&gt;" class="s14" d="m18.8 69.7q0.8 0.2 1.6 0.4 0.7 0.1 1.5 0.3 1.6 0.3 3.2 0.6 1.6 0.2 3.3 0.4 0.4 0 0.8 0.1h0.4 0.4q0.4 0.1 0.8 0.1h0.8q-1.6 0-3.3-0.1l-0.8-0.1q-0.4 0-0.8-0.1-0.4 0-0.8-0.1-0.4-0.1-0.8-0.1-1.6-0.3-3.2-0.6-1.6-0.3-3.1-0.8z"/>
				</g>
				<g id="&lt;Group&gt;">
					<path id="&lt;Path&gt;" class="s14" d="m18.9 67.8q1.1 0.3 2.1 0.6 1.1 0.3 2.2 0.5 2.1 0.5 4.2 1 2.2 0.4 4.3 0.8 0.6 0.1 1.1 0.2 0.3 0 0.5 0l0.6 0.1 0.5 0.1h0.3 0.3l1.1 0.2q-2.2-0.2-4.4-0.5-2.2-0.3-4.3-0.8-2.1-0.4-4.3-1-2.1-0.5-4.2-1.2z"/>
				</g>
				<g id="&lt;Group&gt;">
					<path id="&lt;Path&gt;" class="s14" d="m18.6 70.5q0.5 0.2 0.9 0.3 0.5 0.1 0.9 0.2 0.9 0.3 1.8 0.4 0.9 0.2 1.9 0.4 0.4 0.1 0.9 0.1 0.4 0.1 0.9 0.1-0.9 0-1.9-0.1-0.9-0.1-1.8-0.3-0.9-0.2-1.8-0.5-0.9-0.2-1.8-0.6z"/>
				</g>
				<path id="&lt;Path&gt;" class="s14" d="m39.9 74.5c0 0 8.8-2 9.2-1.6 0.3 0.3-1.5 1.2-9.2 1.6z"/>
				<path id="&lt;Path&gt;" class="s1" d="m66 57c0 0 1.2 0.6 1.2 1.6q0 0 0 0.1c0 0 0.9-2.3-1.2-1.7z"/>
				<g id="&lt;Group&gt;">
					<path id="&lt;Path&gt;" class="s1" d="m68.7 56q0 0.8 0.1 1.6 0.1 0.4 0.1 0.8l0.1 0.4 0.1 0.4q0 0.1 0.1 0.3 0 0.2 0.1 0.4v0.4l0.2 0.4q0.1 0.4 0.2 0.7 0.1 0.4 0.3 0.8-0.2-0.4-0.4-0.7-0.2-0.4-0.3-0.8-0.3-0.7-0.5-1.5-0.1-0.8-0.2-1.6 0-0.8 0.1-1.6z"/>
				</g>
				<g id="&lt;Group&gt;">
					<path id="&lt;Path&gt;" class="s1" d="m68.9 55.5q0.2 0.2 0.4 0.3 0.3 0.2 0.4 0.4 0.1 0.1 0.1 0.1 0 0.1 0 0.2v0.1q0 0 0 0v0.2q0 0.2 0 0.5 0 0.5-0.1 1 0 0.6-0.1 1.1-0.1-0.6-0.1-1.1 0.1-0.5 0.1-1v-0.5-0.2q0 0 0 0v-0.1q0-0.1 0-0.2-0.2-0.2-0.3-0.4-0.2-0.2-0.4-0.4z"/>
				</g>
			</g>
		</g>
	</g>
</svg>