<svg version="1.2" xmlns="http://www.w3.org/2000/svg" viewBox="0 0 63 95" width="63" height="95">
	<title>未标题-1</title>
	<style>
		.s0 { fill: #000000 } 
		.s1 { fill: #b3a387;stroke: #231815;stroke-linecap: round;stroke-linejoin: round;stroke-width: .1 } 
		.s2 { fill: #7b503d;stroke: #231815;stroke-width: .1 } 
		.s3 { fill: #ffffff } 
		.s4 { fill: #baedee } 
		.s5 { fill: #ffca9b;stroke: #000000;stroke-width: .1 } 
		.s6 { fill: #dba379;stroke: #000000;stroke-width: .1 } 
		.s7 { fill: #95593d;stroke: #000000;stroke-width: .1 } 
		.s8 { fill: #6c7c8e;stroke: #000000;stroke-width: .1 } 
		.s9 { fill: none;stroke: #000000;stroke-linecap: round;stroke-linejoin: round;stroke-width: .1 } 
		.s10 { fill: #382013 } 
		.s11 { fill: #b3a387;stroke: #000000;stroke-width: .1 } 
		.s12 { fill: #55585e;stroke: #231815;stroke-width: .1 } 
		.s13 { fill: #7d513e;stroke: #000000;stroke-width: .1 } 
	</style>
	<g id="图层 1">
		<g id="&lt;Group&gt;">
			<path id="&lt;Path&gt;" class="s0" d="m62.9 58c-0.2 1.3-2 3.6-4 4.5 0 0-0.5 1.7-1 2.3-0.6 0.6-2.3 1.2-5.8 1.4-2.7 0.1-7.5 0.7-11.5 0.4 0 0.8 0 1.6-0.1 2q0.2 0 0.5 0.1c0.7 0.3 1.5 1.2 1.2 2.2 0.5 0 1.4 0.1 2.1-0.2 1.1-0.6 3.5-1.5 5.6-0.4 2.2 1.1 1 3 0.6 3.1-0.3 0.2-2.1 1-4.9 1 0.6 0.4 1 0.7 1.4 0.8 0.6 0 4.3-0.7 4.7 0 0.4 0.7-0.1 3.5-3 3.7-1.3 0.1-3-0.3-4.5-1 0.9 1.4 2.3 3.7 2.8 4.2 0.6 0.7 2.2 3.8 2.2 3.8 0 0 1.9 1.8 2.1 2.4 0.3 0.6 0 1.4 0 1.7 0 0.1-0.2 0.1-0.4 0.1 0 0.4 0.1 1 0.2 1.3 0.1 0.4 0.2 1.4-0.4 2.7-0.5 1.4-1.4 0.7-1.8 0.5-0.3-0.1-2.8-2-3.8-2.8q-0.2 0.1-0.4 0.1c-0.5-0.1-2.3-2-2.3-2-0.4-0.1-1-0.9-2.2-1.2-1.1-0.4-1.9-1.3-1.9-1.3 0 0-0.6-0.3-1.5-0.8-0.8-0.6-6.3-2.7-7.9-3.4-1.5-0.7-6.3-0.1-7.4-0.5-1.2-0.4-3.6-0.5-4.3-0.5-0.8 0-2.4 1.2-2.3 1.5 0 0.4-0.3 3-0.3 3 0 0 0.2 1.3-0.1 1.9-0.1 0.2-0.3 0.4-0.6 0.5l-0.7 3c-1 1.3-3.5 1.2-3.5 1.2l-1.2-2.8q0 0-0.1 0c-0.4-0.1-1.5-1.3-1.5-1.5-0.1-0.1 0-1.5 0-2.1 0-0.5-0.6-0.6-0.6-1.7 0-1.1-2.4-4.8-1-8.6 1.1-3.1 5.4-4.7 7.1-5.2 0-0.3 0.1-0.6 0.3-0.8q0.1 0 0.1-0.1c0.1-0.2 0-0.4-0.1-0.7-0.1-0.3-0.3-0.7-0.3-0.9 0-0.5-0.3-1.6 1.1-2-0.5-2.4-0.2-9.5-0.2-9.5-1.3-1.3-2.3-3.4-4-5.3-1.8-2-2.7-4.5-3.7-6.2-1-1.7-1.1-4.5-1.1-4.5-1.1 0-1.8-0.8-1.8-0.8-0.7-1-0.4-2.2 0.1-3.2-2.9-3.4-3.3-7.4-1.8-8.4 0.9-0.6 1.7-0.4 2.2-0.2 0.1-4.1 0.9-10 3.9-13.3 3.8-4.3 10.9-9.5 10.9-9.5 0 0 2.1-1.8 2.7-2.9 0.6-1.1 1.2-1.9 1.2-1.9 0 0 0.8-1.3 2.6-1.1 1.7 0.3 3.1 1.9 4.1 3.4 1 1.5 2.8 2.7 2.8 2.7 0 0 4.2 3 8.1 5.6 3.8 2.6 6.7 6.1 8.2 11 1.5 4.9 0.3 11.5-0.5 13.4-0.7 1.9-1 7.3-5.2 10.8-1.5 1.3-3.7 2.4-6.3 3.2l0.1 0.1c0.4 0.6 1.5 1.9 2.4 2.6 1.1 0.8 1.1 0.5 1.7 1.2 0.7 0.8 3 2.8 3.6 3.1 0.6 0.2 1.9 0.8 2 1.1 0 0 1.9-0.1 3.1 0.3 1.2 0.4 3.4 0.2 3.4 0.2 0 0 0.6-0.6 1.2-0.7 0 0 1.3-1.7 3.6-0.7 0 0 3.4-2.7 4.1-2.2 0.6 0.5 0 1.1 0.6 1.3 0.5 0.2 1.6 0.3 1.4 1.5z"/>
			<g id="&lt;Group&gt;">
				<path id="&lt;Path&gt;" class="s1" d="m50.5 73.4c-0.3 0.2-2.1 1-4.9 1-0.4-0.2-0.9-0.5-1.6-0.8-0.8-0.3-1.6-0.9-2.1-1.4q-0.2-0.2-0.4-0.3c-0.1-0.8 0.3-1.1 0.3-1.1 0 0 0.2 0 0.4 0.1 0.5 0 1.4 0.1 2.1-0.2 1.1-0.6 3.5-1.5 5.6-0.4 2.2 1.1 1 3 0.6 3.1z"/>
				<path id="&lt;Path&gt;" class="s1" d="m48.7 78.9c-1.3 0.1-3-0.3-4.5-1-1.6-0.7-3.1-1.8-3.7-2.8q-0.1-0.1-0.1-0.3c0 0-0.1-0.3 0.2-0.8 0 0-0.1-0.8 0.1-1.6 0-0.4 0.2-0.7 0.4-1 0 0 0.1 0.2 0.4 0.5q0.2 0.1 0.4 0.3c0.5 0.5 1.3 1.1 2.1 1.4 0.7 0.3 1.2 0.6 1.6 0.8 0.6 0.4 1 0.7 1.4 0.8 0.6 0 4.3-0.7 4.7 0 0.4 0.7-0.1 3.5-3 3.7z"/>
				<path id="&lt;Path&gt;" class="s2" d="m47.2 36.2c-0.7 1.9-1 7.3-5.2 10.8-1.6 1.4-3.8 2.5-6.4 3.3q-2 0.6-4.1 0.9c1.1-2.7 1.9-6.1 1.8-6.9-0.2-1.1-1.7-5-5.3-5.3-3.5-0.2-6.1 4.3-6.1 4.3q-0.1 0.5 0 1h-0.4c0 0-0.3 1.9 0.2 2.6 0.3 0.4 1.9 2.7 3.5 4.8q-1.8-0.1-3.5-0.4-0.2 0-0.5 0-0.9-0.2-1.8-0.4c-3.2-0.8-5.9-1.9-8-3.4q-0.5-0.3-1-0.7-1.9-1.5-3-3.3c-0.8-1.3-1.6-2.7-2.2-4.2q-0.2-0.4-0.3-0.7-0.6-1.6-1.1-3.2c-0.3-1.3-0.5-2.6-0.6-3.8 0-0.7-0.1-1.6 0-2.6 0.1-4.1 0.9-10.1 3.9-13.5 3.8-4.3 10.9-9.5 10.9-9.5 0 0 2.1-1.8 2.7-2.9 0.6-1.1 1.2-1.9 1.2-1.9 0 0 0.8-1.3 2.6-1.1 1.7 0.3 3.1 1.9 4.1 3.4 1 1.5 2.8 2.7 2.8 2.7 0 0 4.2 3 8.1 5.6 3.8 2.6 6.7 6.1 8.2 11 1.5 4.9 0.3 11.5-0.5 13.4z"/>
				<path id="&lt;Compound Path&gt;" class="s3" d="m20.9 29.9c0 3.1-0.7 6.4-1.8 7.2 0 0-0.5 0-1.3 0 0.3-1 0.8-2.8 0.6-4.6-0.3-2.7-1.5-4.8-3.6-5.1q-0.9-0.1-1.6 0.1-0.9 0.2-1.5 1.1-0.6 0.9-0.9 2.4c-0.5 2.1 0.1 3.9 0.5 4.8q-0.4-0.2-0.8-0.4c0 0-1.7-0.6-1.8-5.4 0-4.7 3.5-7.5 6.9-7 3.3 0.6 5.4 3.8 5.3 6.9z"/>
				<path id="&lt;Path&gt;" class="s4" d="m17.8 37.1q-0.4 0-0.9-0.1c0.1-0.9 0.5-1.9 0.1-4.2-0.5-3.2-1.9-3.7-3-3.8-1.1-0.1-2.8 1.4-2.4 4 0.2 1.7 0.6 2.7 0.9 3.2q-0.6-0.2-1.2-0.4c-0.4-0.9-1-2.7-0.5-4.8q0.3-1.5 0.9-2.4c0.6 0.6 1.2 0.8 1.5 0.1 0.2-0.5 0.1-0.9 0-1.2q0.7-0.2 1.6-0.1c2.1 0.3 3.3 2.4 3.6 5.1 0.2 1.8-0.3 3.6-0.6 4.6z"/>
				<path id="&lt;Compound Path&gt;" fill-rule="evenodd" class="s0" d="m16.9 37c-1.3-0.1-2.9-0.3-4.4-0.8-0.3-0.5-0.7-1.5-0.9-3.2-0.4-2.6 1.3-4.1 2.4-4 1.1 0.1 2.5 0.6 3 3.8 0.4 2.3 0 3.3-0.1 4.2zm-2.5-5.3c0-0.4-0.3-0.7-0.6-0.7-0.4 0-0.7 0.3-0.7 0.7 0 0.4 0.3 0.7 0.7 0.7 0.3 0 0.6-0.3 0.6-0.7zm0.7 0.7c0-0.2-0.2-0.3-0.4-0.3-0.2 0-0.4 0.1-0.4 0.3 0 0.3 0.2 0.4 0.4 0.4 0.2 0 0.4-0.1 0.4-0.4z"/>
				<path id="&lt;Path&gt;" class="s3" d="m13.2 28.7c-0.3 0.7-0.9 0.5-1.5-0.1q0.6-0.9 1.5-1.1c0.1 0.3 0.2 0.7 0 1.2z"/>
				<path id="&lt;Path&gt;" class="s3" d="m13.8 32.4c-0.4 0-0.7-0.3-0.7-0.7 0-0.4 0.3-0.7 0.7-0.7 0.3 0 0.6 0.3 0.6 0.7 0 0.4-0.3 0.7-0.6 0.7z"/>
				<path id="&lt;Path&gt;" class="s3" d="m14.7 32.8c-0.2 0-0.4-0.1-0.4-0.4 0-0.2 0.2-0.3 0.4-0.3 0.2 0 0.4 0.1 0.4 0.3 0 0.3-0.2 0.4-0.4 0.4z"/>
				<path id="&lt;Path&gt;" class="s3" d="m43.8 37.9q-0.3 0.2-0.7 0.4 0.2-0.3 0.3-0.7c3.2-6.3 1.5-10-1.9-9q-0.2 0-0.4 0.2-0.7 0.4-1.2 1.1c-1.4 2.3-1.4 6.6-1.4 8.5-0.9-0.2-1.6-0.5-1.6-0.5 0 0-1.7-6.8 1.8-11.2 3.5-4.5 7.5-1.1 7.6 1.9 0.1 3-0.1 7.7-2.5 9.3z"/>
				<path id="&lt;Path&gt;" class="s4" d="m43.4 37.6c1-2.4 1.6-6.4 1-7.2-0.8-1-2-0.7-3.7 0.7-1.4 1.2-1.3 6.2-1.3 7.5q-0.5-0.1-0.9-0.2c0-1.9 0-6.2 1.4-8.5 0.1 0.4 0.3 0.6 0.7 0.7 0.9 0.1 1.1-0.4 1-1-0.1-0.4-0.3-0.7-0.5-0.8q0.2-0.2 0.4-0.2c3.4-1 5.1 2.7 1.9 9z"/>
				<path id="&lt;Path&gt;" class="s3" d="m40.6 30.6c-0.4-0.1-0.6-0.3-0.7-0.7q0.5-0.7 1.2-1.1c0.2 0.1 0.4 0.4 0.5 0.8 0.1 0.6-0.1 1.1-1 1z"/>
				<path id="&lt;Compound Path&gt;" fill-rule="evenodd" class="s0" d="m43.4 37.6q-0.1 0.4-0.3 0.7 0 0 0 0c-1.2 0.5-2.5 0.5-3.7 0.3 0-1.3-0.1-6.3 1.3-7.5 1.7-1.4 2.9-1.7 3.7-0.7 0.6 0.8 0 4.8-1 7.2zm-0.3-4.6c0.1-0.3 0-0.7-0.3-0.8-0.3-0.1-0.7 0-0.8 0.4-0.1 0.3 0 0.7 0.3 0.8 0.3 0.1 0.6-0.1 0.8-0.4zm0.3 0.2c-0.1-0.1-0.3 0-0.4 0.2 0 0.1 0 0.3 0.2 0.4 0.1 0 0.3-0.1 0.4-0.2 0-0.2 0-0.4-0.2-0.4z"/>
				<path id="&lt;Path&gt;" class="s3" d="m43.1 33c-0.2 0.3-0.5 0.5-0.8 0.4-0.3-0.1-0.4-0.5-0.3-0.8 0.1-0.4 0.5-0.5 0.8-0.4 0.3 0.1 0.4 0.5 0.3 0.8z"/>
				<path id="&lt;Path&gt;" class="s3" d="m43.6 33.6c-0.1 0.1-0.3 0.2-0.4 0.2-0.2-0.1-0.2-0.3-0.2-0.4 0.1-0.2 0.3-0.3 0.4-0.2 0.2 0 0.2 0.2 0.2 0.4z"/>
				<path id="&lt;Path&gt;" class="s5" d="m31.6 51.2q-0.2 0.3-0.3 0.6 0 0 0 0c-0.6 1.5-1.3 2.8-1.9 3q-0.1 0-0.2 0 0 0-0.1 0 0 0 0 0 0 0 0 0 0 0 0 0 0 0 0 0-0.1 0-0.1-0.1 0 0 0 0-0.1 0-0.1 0 0 0-0.1 0 0 0 0 0 0 0 0 0 0 0-0.1-0.1 0 0 0 0-0.1 0-0.1 0 0 0-0.1-0.1 0 0 0 0 0 0-0.1 0 0 0 0-0.1 0 0 0 0-0.1 0-0.1 0-0.1-0.1-0.1-0.1-0.1-0.1-0.1-0.1-0.1 0-0.1-0.1-0.5-0.4-1-1-0.1-0.1-0.2-0.2 0-0.1-0.1-0.1-0.2-0.3-0.4-0.6-0.1 0-0.1-0.1-0.2-0.2-0.3-0.4c-1.5-2.1-2.9-4.5-3.1-5-0.3-0.8-0.8-1.3-0.9-2.4q0-0.5 0-1c0 0 2.6-4.5 6.2-4.3 3.5 0.3 5 4.2 5.2 5.3 0.2 0.8-0.7 4.2-1.7 6.9z"/>
				<path id="&lt;Path&gt;" class="s6" d="m31.3 51.8c-0.9 2.4-1.6 4.1-3.3 2.9q-0.1-0.1-0.2-0.2c-0.4-0.3-0.9-0.8-1.4-1.4q-0.6-0.7-1.2-1.4c-1.6-2.1-3.2-4.4-3.5-4.8-0.4-0.7-0.1-2.6-0.1-2.6h0.3c0.1 1.1 0.6 1.6 0.9 2.4 0.2 0.5 1.6 2.9 3.1 5q0.1 0.2 0.3 0.4 0 0.1 0.1 0.1 0.2 0.3 0.4 0.6 0.1 0 0.1 0.1 0.1 0.1 0.2 0.2 0.5 0.6 1 1 0 0.1 0.1 0.1 0 0 0.1 0.1 0 0 0.1 0.1 0 0 0.1 0 0 0 0 0 0 0.1 0.1 0.1 0 0 0 0 0 0 0.1 0 0 0.1 0 0.1 0 0 0.1 0 0 0 0 0 0.1 0.1 0.1 0.1 0 0 0 0 0 0 0.1 0 0 0 0 0 0 0 0.1 0 0 0 0 0 0 0.1 0.1 0.1 0 0 0 0 0 0 0 0 0 0 0 0 0 0 0 0 0.1 0 0.1 0 0.1 0 0.2 0c0.6-0.2 1.3-1.5 1.9-3z"/>
				<path id="&lt;Path&gt;" class="s7" d="m4.1 35.4c-0.4 0.5-1 1.2-1.3 2-2.9-3.4-3.3-7.4-1.8-8.4 1-0.7 1.9-0.4 2.4 0 0 1 0 1.9 0 2.6 0.1 1.2 0.3 2.5 0.7 3.8z"/>
				<path id="&lt;Path&gt;" class="s8" d="m33.5 70.8h-0.1c-0.3 0-2.1 0.2-2.1 0.2-1.2 0.1-3.7 0.1-5.9 0.1-2.6-0.1-5-0.3-5.2-0.3q-0.1-0.1-0.4-0.2c-0.5-0.1-1.1-0.3-1.4-0.4-0.4-0.1-2.1-0.7-3.1-0.9-1.1-0.3-1.7-1.1-1.7-1.1l-0.1-1.3c-0.5-2.4-0.2-9.5-0.2-9.5-1.3-1.3-2.3-3.4-4-5.3-1.8-2-2.7-4.5-3.7-6.2-1-1.7-1.1-4.5-1.1-4.5-1.1 0-1.8-0.8-1.8-0.8-0.7-1-0.4-2.2 0.1-3.2 0.3-0.8 0.9-1.5 1.3-2q0.4 1.6 1 3.2c0 0-1.1 1-1.2 2.4 0 0 0.5-1.1 1.5-1.7 0.6 1.5 1.4 2.9 2.2 4.2q1.1 1.8 3.1 3.3c-0.2 0.7-0.9 3.2-0.3 3.9 0.8 0.8 0.9-2.1 1-2.6q0.1-0.4 0.2-0.6c2.1 1.5 4.8 2.6 8 3.4 0 0.9 0 3 1 4.6 1.2 2.1 1.3 4.5 6.3 8.9 3.6 3.2 5.7 5.4 6.6 6.4z"/>
				<path id="&lt;Path&gt;" class="s8" d="m58.9 62.5c0 0-0.5 1.7-1 2.3-0.6 0.6-2.3 1.2-5.8 1.4-2.7 0.1-7.5 0.7-11.5 0.4 0 0.8 0 1.6-0.1 2-0.5 0.1-0.7 0.5-0.7 0.5-0.5-0.1-1.3 0.4-1.7 0.4-0.2 0-0.4 0.3-0.4 0.5l-0.7 0.2c-0.9-0.6-2-1.4-2.5-1.7-0.6-0.4-4.6-4.7-4.9-5.2-0.4-0.4-5.7-5.2-5.1-5.8 0.4-0.4 2.4-2 3.5-3q0.1 0.1 0.2 0.2c1.7 1.2 2.4-0.5 3.3-2.9q0 0 0 0 0.1-0.3 0.2-0.6 2.1-0.3 4.1-0.9c0.4 0.6 1.5 1.9 2.4 2.6 1.1 0.8 1.1 0.5 1.7 1.2 0.7 0.8 3 2.8 3.6 3.1 0.6 0.2 1.9 0.8 2 1.1 0 0 1.9-0.1 3.1 0.3 1.2 0.4 3.4 0.2 3.4 0.2 0 0 0.6-0.6 1.2-0.7 0 0 1.3-1.7 3.6-0.7 0 0-1.3 0-1.3 1.6 0 1.7 1 3.7 1.5 3.9 0.4 0.2 1.9-0.4 1.9-0.4z"/>
				<g id="&lt;Group&gt;">
					<path id="&lt;Path&gt;" class="s0" d="m33.1 58.9c0 0.7 0.2 1.3 0.5 2q0.4 0.9 1 1.8 0.5 0.9 1.1 1.7 0.4 0.5 0.7 0.9 0.3 0.4 0.6 0.8 0.4 0.1 0.9 0.2 0.4 0.1 0.9 0.1 0.4 0.1 0.9 0.1 0.4 0.1 0.9 0.1-0.5 0-0.9 0-0.5 0-1 0-0.4-0.1-0.9-0.2-0.4 0-0.9-0.1 0 0 0-0.1-0.7-0.8-1.3-1.6-0.7-0.9-1.2-1.8-0.5-0.9-0.9-1.9-0.2-0.5-0.3-1-0.2-0.5-0.1-1z"/>
				</g>
				<path id="&lt;Path&gt;" class="s9" d=""/>
				<path id="&lt;Path&gt;" class="s10" d="m26.6 53.1c-0.9 0.8-3.1 2.8-3.6 2.6-0.7-0.3-0.9-2.3-0.9-2.9-0.1-0.4-0.4-1.1-0.6-1.5q0.2 0 0.4 0 1.7 0.3 3.5 0.4 0.6 0.7 1.2 1.4z"/>
				<path id="&lt;Path&gt;" class="s11" d="m37 70.2l-3.5 0.6c-0.9-1-3-3.2-6.6-6.4-5-4.4-5.1-6.8-6.3-8.9-1-1.6-1-3.7-1-4.6q0.9 0.2 1.9 0.4c0.2 0.4 0.5 1.1 0.6 1.5 0 0.6 0.2 2.6 0.9 2.9 0.5 0.2 2.7-1.8 3.6-2.6 0.5 0.6 1 1.1 1.4 1.4-1.1 1-3.1 2.6-3.5 3-0.6 0.6 4.7 5.4 5.1 5.8 0.3 0.5 4.3 4.8 4.9 5.2 0.5 0.3 1.6 1.1 2.5 1.7z"/>
				<path id="&lt;Path&gt;" class="s7" d="m62.9 58c-0.2 1.3-2 3.6-4 4.5 0 0-1.5 0.6-1.9 0.4-0.5-0.2-1.5-2.2-1.5-3.9 0-1.6 1.3-1.6 1.3-1.6 0 0 3.4-2.7 4.1-2.2 0.6 0.5 0 1.1 0.6 1.3 0.5 0.2 1.6 0.3 1.4 1.5z"/>
				<path id="&lt;Path&gt;" class="s12" d="m51.3 90c0 0.1-0.2 0.1-0.4 0.1-0.5-0.1-1.2-0.1-1.4 0.1-0.4 0.3-2.4 0.8-2.4 0.8 0 0-1.3 0.6-2 0.8q-0.2 0.1-0.4 0.1c-0.5-0.1-2.3-2-2.3-2-0.4-0.1-1-0.9-2.2-1.2-1.1-0.4-1.9-1.3-1.9-1.3 0 0-0.6-0.3-1.5-0.8-0.8-0.6-6.3-2.7-7.9-3.4-1.5-0.7-6.3-0.1-7.4-0.5-1.2-0.4-3.6-0.5-4.3-0.5-0.8 0-2.4 1.2-2.3 1.5 0 0.4-0.3 3-0.3 3 0 0 0.2 1.3-0.1 1.9-0.1 0.2-0.3 0.4-0.6 0.5-0.6 0.4-1.6 0.7-2 0.7-0.5 0.1-2.8 0.6-3.4 0.7q0 0-0.1 0c-0.4-0.1-1.5-1.3-1.5-1.5-0.1-0.1 0-1.5 0-2.1 0-0.5-0.6-0.6-0.6-1.7 0-1.1-2.4-4.8-1-8.6 1.1-3.1 5.4-4.7 7.1-5.2-0.1 0.4 0 0.8 0 0.8 0.5 0.9 3.2 1.8 5 2.4 1.7 0.7 6.5 0.4 6.5 0.4 2.8 0.9 8.4 1.1 10.2 0.7 1.9-0.5 4.5-0.7 4.5-0.7 0 0 1.3 0.2 1.9 0.2q0 0 0-0.1c0.6 1 2.1 2.1 3.7 2.8 0.9 1.4 2.3 3.7 2.8 4.2 0.6 0.7 2.2 3.8 2.2 3.8 0 0 1.9 1.8 2.1 2.4 0.3 0.6 0 1.4 0 1.7z"/>
				<path id="&lt;Path&gt;" class="s13" d="m13.9 89.1l-0.7 3c-1 1.3-3.5 1.2-3.5 1.2l-1.2-2.8c0.6-0.1 2.9-0.6 3.4-0.7 0.4 0 1.4-0.3 2-0.7z"/>
				<path id="&lt;Path&gt;" class="s13" d="m50.7 94.1c-0.5 1.4-1.4 0.7-1.8 0.5-0.3-0.1-2.8-2-3.8-2.8 0.7-0.2 2-0.8 2-0.8 0 0 2-0.5 2.4-0.8 0.2-0.2 0.9-0.2 1.4-0.1 0 0.4 0.1 1 0.2 1.3 0.1 0.4 0.2 1.4-0.4 2.7z"/>
				<g id="&lt;Group&gt;">
					<path id="&lt;Path&gt;" class="s0" d="m13.1 72.9q0.3 0.3 0.5 0.7 0.2 0.4 0.3 0.7 0.1 0.4 0.2 0.8 0.1 0.4 0.1 0.9l-0.3-0.8q-0.1-0.4-0.2-0.8-0.3-0.7-0.6-1.5z"/>
				</g>
				<g id="&lt;Group&gt;">
					<path id="&lt;Path&gt;" class="s0" d="m16 75.4q1.5 0.6 3 1.1c0.9 0.4 1.9 0.7 3 0.9 0.5 0.1 1 0.2 1.5 0.3q0.8 0.2 1.5 0.4 1.6 0.3 3.1 0.8-1.6-0.4-3.1-0.7-0.8-0.1-1.5-0.3-0.8-0.1-1.6-0.2-0.8-0.2-1.5-0.5-0.8-0.2-1.5-0.5-1.5-0.6-2.9-1.3z"/>
				</g>
				<g id="&lt;Group&gt;">
					<path id="&lt;Path&gt;" class="s0" d="m15.7 77l2.5 1.1 2.5 1.1q2.5 1.1 5 2.2 2.5 1.1 5.1 2.1l1.2 0.6q0.7 0.2 1.3 0.5l0.3 0.1 0.3 0.1 0.7 0.3q0.3 0.1 0.6 0.2l0.7 0.2c-1.8-0.5-3.5-1.1-5.2-1.8q-2.5-1-5.1-2.1-2.5-1.1-5-2.3l-2.5-1.1q-1.2-0.6-2.4-1.2z"/>
				</g>
				<path id="&lt;Path&gt;" class="s0" d="m9.6 86c0 0 1.8-0.7 2.7-1.1 0.8-0.3 1.7-0.5 1.7-0.5 0 0-0.1 0.4-0.1 0.6 0 0.1-0.5 0.8-0.7 1-0.1 0.2 0 1.2-0.2 1.2-0.3 0-0.7-0.6-0.7-1.1 0-0.4 0.4-0.9 0.3-1 0-0.1-1.4 0.5-3 0.9z"/>
				<path id="&lt;Path&gt;" class="s0" d="m9.4 82.6c0 0 1.3-0.9 1.9-0.9 0.6-0.1 5.1-0.3 5.2-0.2 0 0.1-2 0.4-2.1 0.5-0.1 0.2-0.6 0.2-0.9 0.3-0.2 0.1-1.8 1.8-2.4 1.9-0.6 0.1-1.3 0.2-1.3 0.2 0 0 1.9-1.8 1.9-2.1 0-0.2-1.9 0.1-2.3 0.3z"/>
				<g id="&lt;Group&gt;">
					<path id="&lt;Path&gt;" class="s0" d="m39 87.7l1.3-0.2q0.4 0 0.7-0.1c0.2 0 0.5-0.1 0.6-0.2q0.1 0 0.2 0l0.2-0.1q0.1-0.1 0.3-0.2 0.3-0.1 0.6-0.2 0.6-0.3 1.3-0.5-0.6 0.3-1.2 0.6l-0.6 0.3-0.3 0.2-0.2 0.1q-0.1 0-0.2 0c-0.2 0.1-0.4 0.2-0.6 0.2q-0.4 0.1-0.7 0.1-0.7 0-1.4 0z"/>
				</g>
				<path id="&lt;Path&gt;" class="s9" d="m47.3 86c-0.6 0.4-1.5 1.3-2 1-0.5-0.3 0.6-1.3 0.9-1.4 0.4 0 2.1 0 2.1 0 0 0-0.4 0-1 0.4z"/>
				<g id="&lt;Group&gt;">
					<path id="&lt;Path&gt;" class="s0" d="m19.7 70.7q-0.1-1-0.3-1.9 0-0.5-0.2-0.9-0.1-0.2-0.2-0.5c0-0.1-0.1-0.2-0.3-0.3 0.2 0.1 0.3 0.2 0.4 0.3q0.1 0.2 0.2 0.5 0.1 0.4 0.3 0.9 0.2 0.9 0.3 1.8z"/>
				</g>
				<g id="&lt;Group&gt;">
					<path id="&lt;Path&gt;" class="s0" d="m25.3 71.1l-1.4-3 1.6 2.9z"/>
				</g>
				<g id="&lt;Group&gt;">
					<path id="&lt;Path&gt;" class="s0" d="m30.9 62.5q0.7 0.9 1.4 1.7 0.6 0.8 1.3 1.5 0.4 0.4 0.8 0.8 0.3 0.3 0.7 0.7 0.4 0.3 0.8 0.6 0.5 0.3 1 0.5c-0.4-0.1-0.7-0.2-1-0.4q-0.5-0.2-0.9-0.6-0.8-0.6-1.5-1.4-0.7-0.8-1.4-1.6-0.6-0.9-1.2-1.8z"/>
				</g>
				<g id="&lt;Group&gt;">
					<path id="&lt;Path&gt;" class="s0" d="m32.5 53.1q-0.4 0.4-0.8 0.9-0.3 0.4-0.7 0.9-0.3 0.5-0.6 1-0.2 0.6-0.4 1.1 0.5-0.6 1.1-1.1 0.6-0.5 1.2-1 0.7-0.5 1.3-0.9 0.4-0.2 0.7-0.4 0.4-0.1 0.8-0.2-0.4 0.1-0.8 0.3-0.3 0.2-0.6 0.4-0.7 0.4-1.3 0.9-0.6 0.5-1.2 1-0.6 0.5-1.2 1.1 0 0 0 0-0.1-0.1-0.1-0.1 0.2-0.6 0.4-1.1 0.3-0.5 0.7-1 0.3-0.5 0.7-1 0.4-0.4 0.8-0.8z"/>
				</g>
				<g id="&lt;Group&gt;">
					<path id="&lt;Path&gt;" class="s0" d="m37.5 54.8q-0.3 0.1-0.6 0.3-0.2 0.1-0.3 0.2l-0.3 0.2q-0.5 0.4-1 0.8-0.3 0.3-0.5 0.5-0.2 0.3-0.4 0.6-0.1 0.1-0.2 0.3l-0.1 0.3q-0.1 0.1-0.2 0.3-0.1 0.1-0.1 0.3 0.2-0.7 0.6-1.3v-0.1q0.1-0.1 0.1-0.2l0.2-0.2q0.3-0.3 0.5-0.5 0.5-0.5 1.1-0.9 0.5-0.4 1.2-0.6z"/>
				</g>
				<g id="&lt;Group&gt;">
					<path id="&lt;Path&gt;" class="s0" d="m36.3 58.9q0-0.5 0.1-0.9 0.1-0.1 0.1-0.2 0-0.1 0.1-0.1 0.1-0.2 0.1-0.4 0.1-0.2 0.1-0.4 0-0.3 0-0.4 0-0.2-0.1-0.2 0 0-0.1 0 0 0 0 0.1-0.1 0.1-0.2 0.3-0.3 0.8-0.5 1.6-0.2 0.8-0.2 1.7-0.1 0.4 0 0.8 0 0.2 0 0.4 0.1 0.2 0.2 0.3 0.1 0 0.1 0 0 0.1 0.1 0 0 0 0.1-0.1 0-0.2 0.1-0.4 0-0.4 0.1-0.8c0.2-0.6 0.3-1.1 0.6-1.6 0.2-0.5 0.6-0.9 1.1-1.2q-0.3 0.2-0.6 0.5-0.3 0.3-0.5 0.7c-0.2 0.5-0.4 1.1-0.5 1.6l-0.1 0.8q-0.1 0.2-0.2 0.4 0 0.1-0.1 0.2 0 0.1-0.1 0-0.1 0-0.1 0-0.2-0.2-0.3-0.4 0-0.2 0-0.4-0.1-0.4 0-0.8 0-0.9 0.2-1.7c0.1-0.5 0.3-1.1 0.5-1.6q0.1-0.2 0.2-0.4 0 0 0.1 0 0.1-0.1 0.1-0.1 0.1 0.1 0.1 0.1 0.1 0.1 0.1 0.1 0 0.3 0 0.5-0.1 0.2-0.1 0.4-0.1 0.2-0.2 0.4 0 0.1-0.1 0.2 0 0.1 0 0.2-0.2 0.3-0.2 0.8z"/>
				</g>
				<g id="&lt;Group&gt;">
					<path id="&lt;Path&gt;" class="s0" d="m41.1 65.6q0-0.8 0.1-1.7 0-0.4 0-0.8 0.1-0.2 0.1-0.4 0-0.2 0.1-0.4 0.2-0.4 0.5-0.8 0.2-0.3 0.5-0.6 0.5-0.7 1.1-1.3l-1 1.3q-0.3 0.4-0.5 0.7-0.3 0.3-0.5 0.7-0.1 0.2-0.1 0.4 0 0.2-0.1 0.4 0 0.4-0.1 0.8z"/>
				</g>
				<g id="&lt;Group&gt;">
					<path id="&lt;Path&gt;" class="s0" d="m44.2 58.1c-0.1-0.2-0.3-0.3-0.5-0.3-0.2 0-0.4 0.1-0.6 0.2-0.3 0.3-0.5 0.6-0.8 1q-0.3 0.5-0.6 1-0.1 0.3-0.3 0.6-0.1 0.2-0.3 0.5 0.3-0.6 0.5-1.1 0.3-0.6 0.7-1.1c0.2-0.3 0.4-0.7 0.8-0.9 0.2-0.1 0.4-0.2 0.6-0.2 0.2 0 0.4 0.1 0.5 0.3z"/>
				</g>
				<g id="&lt;Group&gt;">
					<path id="&lt;Path&gt;" class="s0" d="m44.3 59.1c0-0.2 0.1-0.4 0.2-0.5q0-0.1 0.2-0.1 0.1 0 0.2 0 0.2 0.2 0.5 0.3 0.2 0.1 0.4 0.3 0.1 0.2 0.1 0.4 0 0.1 0 0.2 0 0 0 0.1 0 0.1-0.1 0.2-0.1 0.5-0.4 0.9-0.2 0.5-0.5 0.8-0.1 0.1-0.2 0.2-0.1 0-0.1 0.1-0.1 0-0.2 0-0.1-0.1-0.1-0.1 0-0.1 0-0.2 0-0.1 0-0.2 0-0.5 0.1-1 0-0.2 0.1-0.5 0-0.2-0.1-0.4 0.1 0.2 0.1 0.4 0 0.3 0 0.5-0.1 0.5-0.1 1 0 0.1 0 0.2c0 0.1 0 0.2 0.1 0.2q0 0 0.1-0.1 0.1-0.1 0.2-0.1 0.3-0.4 0.5-0.8 0.3-0.5 0.4-0.9 0.1-0.1 0.1-0.2 0-0.1 0-0.1 0-0.1 0-0.2 0-0.2-0.1-0.4-0.2-0.2-0.4-0.3-0.2-0.1-0.4-0.2-0.1-0.1-0.2-0.1-0.1 0-0.2 0.1c-0.1 0.1-0.1 0.3-0.2 0.5z"/>
				</g>
				<g id="&lt;Group&gt;">
					<path id="&lt;Path&gt;" class="s0" d="m53.1 58.3q-0.2 0.3-0.3 0.7-0.1 0.2-0.1 0.4-0.1 0.2-0.2 0.3l-0.1 0.4v0.4q-0.1 0.4-0.1 0.8l-0.1 0.2q0 0.1 0 0.1 0 0.2 0 0.4 0.1 0.4 0.1 0.8c0.1 0.5 0.3 1 0.4 1.5q-0.1-0.2-0.1-0.4-0.1-0.1-0.2-0.3l-0.1-0.4q0-0.1 0-0.2l-0.1-0.2c0-0.2 0-0.5-0.1-0.8q0-0.2 0-0.4 0-0.1 0-0.2v-0.1q0.1-0.8 0.4-1.6 0.2-0.7 0.6-1.4z"/>
				</g>
				<g id="&lt;Group&gt;">
					<path id="&lt;Path&gt;" class="s0" d="m52.2 58.9q-0.3 0.6-0.6 1.2l-0.3 0.5q-0.1 0.2-0.2 0.3v0.1q0 0.1-0.1 0.1 0 0.1-0.1 0.1-0.2 0.1-0.4 0c-0.1-0.1-0.2-0.2-0.2-0.4q0.1-0.2 0.1-0.3 0.1-0.2 0.2-0.3 0.2-0.3 0.4-0.6 0.1-0.1 0.2-0.2 0.2-0.1 0.3-0.2-0.1 0.1-0.2 0.2-0.2 0.2-0.3 0.3-0.2 0.2-0.3 0.5-0.1 0.2-0.2 0.3-0.1 0.2-0.1 0.3 0.1 0.2 0.2 0.3 0.1 0.1 0.2 0 0.1 0 0.2-0.1 0 0 0 0v-0.1q0.1-0.2 0.2-0.3 0.1-0.3 0.3-0.6 0.3-0.6 0.7-1.1z"/>
				</g>
				<g id="&lt;Group&gt;">
					<path id="&lt;Path&gt;" class="s0" d="m15.1 49.7q-0.3 0.3-0.5 0.7-0.2 0.3-0.4 0.7-0.3 0.8-0.5 1.7l-0.1 0.4-0.1 0.4v0.2 0.2q0 0.2-0.1 0.5 0 0.4 0 0.8 0 0.4 0 0.9 0-0.5-0.1-0.9 0-0.4 0-0.9 0.1-0.2 0.1-0.4v-0.2-0.2l0.1-0.4 0.1-0.5q0.2-0.8 0.5-1.6c0.3-0.5 0.6-1 1-1.4z"/>
				</g>
				<g id="&lt;Group&gt;">
					<path id="&lt;Path&gt;" class="s0" d="m15.9 51.7q-0.2 0.2-0.4 0.6-0.2 0.3-0.4 0.6-0.4 0.6-0.7 1.3-0.3 0.7-0.5 1.5l-0.1 0.3q-0.1 0.2-0.1 0.4v0.2 0.2q-0.1 0.2-0.1 0.3 0-0.7 0.2-1.5 0.2-0.7 0.5-1.4 0.3-0.7 0.7-1.3 0.4-0.7 0.9-1.2z"/>
				</g>
				<path id="&lt;Path&gt;" class="s0" d="m5.4 39.3c-1 0.6-1.5 1.7-1.5 1.7 0.1-1.4 1.2-2.4 1.2-2.4q0.1 0.3 0.3 0.7z"/>
				<path id="&lt;Path&gt;" class="s9" d="m5.1 38.6q0 0 0 0"/>
				<path id="&lt;Path&gt;" class="s0" d="m11.6 47.5q-0.1 0.2-0.2 0.6c-0.1 0.5-0.2 3.4-1 2.6-0.6-0.7 0.1-3.2 0.3-3.9q0.4 0.4 0.9 0.7z"/>
				<path id="&lt;Path&gt;" class="s1" d="m42.2 70.9c-0.2-0.1-0.4-0.1-0.4-0.1 0 0-0.4 0.3-0.3 1.1-0.3-0.3-0.4-0.5-0.4-0.5-0.2 0.3-0.4 0.6-0.4 1-0.2 0.8-0.1 1.6-0.1 1.6-0.3 0.5-0.2 0.8-0.2 0.8q0 0.2 0.1 0.3 0 0.1 0 0.1c-0.6 0-1.9-0.2-1.9-0.2 0 0-0.1-0.7-0.2-0.8-0.1-0.1 0-0.9 0-1.3-0.1-0.4 0.2-1.4 0.1-2.1 0-0.6-0.6-0.8-0.6-0.8h-0.2c0-0.2 0.2-0.5 0.4-0.5 0.4 0 1.2-0.5 1.7-0.4 0 0 0.2-0.4 0.7-0.5q0.2 0 0.5 0.1c0.7 0.3 1.5 1.2 1.2 2.2z"/>
				<path id="&lt;Path&gt;" class="s0" d="m40.6 74c-0.5 0.5-1.7 0.4-1.7 0.4 1-0.1 1.8-2 1.8-2-0.2 0.8-0.1 1.6-0.1 1.6z"/>
				<g id="&lt;Group&gt;">
					<path id="&lt;Path&gt;" class="s0" d="m38.9 70.5q0.2 0.1 0.5 0.3 0.2 0.1 0.5 0.2 0.2 0.1 0.5 0.1 0.2 0.1 0.5 0.2-0.3 0-0.5-0.1-0.3 0-0.6-0.1-0.5-0.2-0.9-0.6z"/>
				</g>
				<path id="&lt;Path&gt;" class="s1" d="m38.6 75c0 0-2.6 0.2-4.5 0.7-1.8 0.4-7.4 0.2-10.2-0.7 0 0-4.8 0.3-6.5-0.4q-0.1 0-0.2 0-0.1-0.1-0.2-0.1 0 0-0.1 0c-0.6-0.3-1.3-0.5-1.9-0.7q0-0.1-0.1-0.1-0.1 0-0.1 0-0.1-0.1-0.2-0.1 0 0 0 0-0.1 0-0.2-0.1-0.1 0-0.2-0.1-0.2 0-0.4-0.1-0.1-0.1-0.3-0.2-0.2-0.1-0.4-0.2 0 0 0 0 0 0 0-0.1-0.1 0-0.1 0-0.1-0.1-0.1-0.1-0.1 0-0.2-0.1 0-0.1-0.1-0.1-0.1-0.1-0.1-0.1 0-0.1-0.1-0.1 0 0 0-0.1c0 0-0.1-0.4 0-0.8 0-0.3 0.1-0.6 0.3-0.8q0.1 0 0.1-0.1c1.4 0.9 3.8 1.1 3.8 1.1-1-0.3-3.9-1.8-3.9-1.8-0.1-0.3-0.3-0.7-0.3-0.9 0-0.5-0.3-1.6 1.1-2l0.1 1.3c0 0 0.6 0.8 1.7 1.1 1 0.2 2.7 0.8 3.1 0.9 0.3 0.1 0.9 0.3 1.4 0.4q0.3 0.1 0.4 0.2c0.2 0 2.6 0.2 5.2 0.3 2.2 0 4.7 0 5.9-0.1 0 0 1.8-0.2 2.1-0.2h0.1l3.5-0.6 0.7-0.2h0.2c0 0 0.6 0.2 0.6 0.8 0.1 0.7-0.2 1.7-0.1 2.1 0 0.4-0.1 1.2 0 1.3 0.1 0.1 0.2 0.8 0.2 0.8z"/>
				<path id="&lt;Path&gt;" class="s0" d="m12.8 70.5c0.1-0.2 0-0.4-0.1-0.7 0 0 2.9 1.5 3.9 1.8 0 0-2.4-0.2-3.8-1.1z"/>
				<path id="&lt;Path&gt;" class="s0" d="m23.9 75c0 0 9.9-1 10.1-0.8 0.1 0.1-7.8 0.9-8.8 0.8-1 0-1.3 0-1.3 0z"/>
			</g>
		</g>
	</g>
</svg>